<svg width="17" height="18" viewBox="0 0 17 18" fill="none" xmlns="http://www.w3.org/2000/svg">
<path d="M8.33777 0.567999C8.95643 0.567999 9.45777 0.759999 9.84177 1.144C10.2258 1.528 10.4178 2.02933 10.4178 2.648C10.4178 3.26667 10.2258 3.768 9.84177 4.152C9.45777 4.536 8.95643 4.728 8.33777 4.728C7.7191 4.728 7.21777 4.536 6.83377 4.152C6.44977 3.768 6.25777 3.26667 6.25777 2.648C6.25777 2.02933 6.44977 1.528 6.83377 1.144C7.21777 0.759999 7.7191 0.567999 8.33777 0.567999ZM16.1138 7.672V10.072H0.561767V7.672H16.1138ZM8.33777 13.08C8.95643 13.08 9.45777 13.272 9.84177 13.656C10.2258 14.04 10.4178 14.5413 10.4178 15.16C10.4178 15.7787 10.2258 16.28 9.84177 16.664C9.45777 17.048 8.95643 17.24 8.33777 17.24C7.7191 17.24 7.21777 17.048 6.83377 16.664C6.44977 16.28 6.25777 15.7787 6.25777 15.16C6.25777 14.5413 6.44977 14.04 6.83377 13.656C7.21777 13.272 7.7191 13.08 8.33777 13.08Z" fill="white"/>
</svg>
